<svg width="200" height="130" viewBox="0 0 200 130" fill="none" xmlns="http://www.w3.org/2000/svg">
<rect x="50" y="15" width="100" height="100" rx="24" fill="white"/>
<path fill-rule="evenodd" clip-rule="evenodd" d="M93.8803 37.9401C93.8803 36.3163 92.5639 35 90.9401 35C89.3163 35 88 36.3163 88 37.9401V46.76C88 51.8631 92.1369 56 97.24 56C102.343 56 106.48 51.8631 106.48 46.76V37.9399C106.48 36.3162 105.164 35 103.54 35C101.916 35 100.6 36.3162 100.6 37.9399V46.7602C100.6 48.6159 99.096 50.1202 97.2403 50.1202C95.3846 50.1202 93.8803 48.6159 93.8803 46.7602V37.9401Z" fill="#2D2D2D"/>
<path fill-rule="evenodd" clip-rule="evenodd" d="M73 40.5C73 37.4624 70.5376 35 67.5 35C64.4624 35 62 37.4624 62 40.5V88C62 96.2843 68.7157 103 77 103H91.5C94.5376 103 97 100.538 97 97.5C97 94.4624 94.5376 92 91.5 92H81C76.5817 92 73 88.4183 73 84V40.5Z" fill="#2D2D2D"/>
</svg>
