<svg width="200" height="130" viewBox="0 0 200 130" fill="none" xmlns="http://www.w3.org/2000/svg">
<g clip-path="url(#clip0_2654_47574)">
<path d="M119 7C119 7 124.717 58.8881 157.111 60C176.167 19.6014 119 7 119 7Z" fill="#F0C81E"/>
<path d="M88 14.6406C88 14.6406 128.67 47.3674 152.405 25.2931C137.394 -16.7764 88 14.6406 88 14.6406Z" fill="#F0C81E"/>
<path d="M140.98 33C140.98 33 120.528 81.0289 148.219 97.8773C184.631 72.0058 140.98 33 140.98 33Z" fill="#F0C81E"/>
<path d="M138 73C138 73 122.223 110.942 145.734 125.167C175.389 105.396 138 73 138 73Z" fill="#F0C81E"/>
<path fill-rule="evenodd" clip-rule="evenodd" d="M128.833 54.4024C127.821 52.0972 128.869 49.408 131.174 48.3959L150.675 39.8332C152.98 38.821 155.67 39.8692 156.682 42.1744C157.694 44.4795 156.646 47.1687 154.341 48.1809L134.839 56.7435C132.534 57.7557 129.845 56.7075 128.833 54.4024Z" fill="#FF3ECF" fill-opacity="0.5" stroke="#FF3ECF" stroke-opacity="0.8" stroke-linecap="round"/>
</g>
<defs>
<clipPath id="clip0_2654_47574">
<rect width="200" height="130" fill="white"/>
</clipPath>
</defs>
</svg>
