<svg width="200" height="130" viewBox="0 0 200 130" fill="none" xmlns="http://www.w3.org/2000/svg">
<path d="M91 51L88 55" stroke="#2D2D2D" stroke-linecap="round"/>
<path d="M102.6 51L105.6 55" stroke="#2D2D2D" stroke-linecap="round"/>
<path d="M96.6001 54L96.6001 58" stroke="#2D2D2D" stroke-linecap="round"/>
<circle cx="52.5" cy="107.5" r="7.5" fill="#9EFF00" fill-opacity="0.5"/>
<circle cx="52.5" cy="107.5" r="7" stroke="#9EFF00" stroke-opacity="0.8"/>
<circle cx="93.5" cy="116.5" r="7.5" fill="#9EFF00" fill-opacity="0.5"/>
<circle cx="93.5" cy="116.5" r="7" stroke="#9EFF00" stroke-opacity="0.8"/>
<circle cx="135.5" cy="113.5" r="7.5" fill="#9EFF00" fill-opacity="0.5"/>
<circle cx="135.5" cy="113.5" r="7" stroke="#9EFF00" stroke-opacity="0.8"/>
<circle cx="65.5" cy="113.5" r="7.5" fill="#9EFF00" fill-opacity="0.5"/>
<circle cx="65.5" cy="113.5" r="7" stroke="#9EFF00" stroke-opacity="0.8"/>
<circle cx="107.5" cy="116.5" r="7.5" fill="#9EFF00" fill-opacity="0.5"/>
<circle cx="107.5" cy="116.5" r="7" stroke="#9EFF00" stroke-opacity="0.8"/>
<circle cx="79.5" cy="116.5" r="7.5" fill="#9EFF00" fill-opacity="0.5"/>
<circle cx="79.5" cy="116.5" r="7" stroke="#9EFF00" stroke-opacity="0.8"/>
<circle cx="121.5" cy="116.5" r="7.5" fill="#9EFF00" fill-opacity="0.5"/>
<circle cx="121.5" cy="116.5" r="7" stroke="#9EFF00" stroke-opacity="0.8"/>
<circle cx="148.5" cy="107.5" r="7.5" fill="#9EFF00" fill-opacity="0.5"/>
<circle cx="148.5" cy="107.5" r="7" stroke="#9EFF00" stroke-opacity="0.8"/>
</svg>
