<svg width="200" height="130" viewBox="0 0 200 130" fill="none" xmlns="http://www.w3.org/2000/svg">
<path fill-rule="evenodd" clip-rule="evenodd" d="M196.646 100.146C196.842 99.9512 197.158 99.9512 197.354 100.146L199.854 102.646C200.049 102.842 200.049 103.158 199.854 103.354L197.354 105.854C197.158 106.049 196.842 106.049 196.646 105.854C196.451 105.658 196.451 105.342 196.646 105.146L198.293 103.5L194.759 103.5C194.295 103.5 193.875 103.776 193.689 104.201L190.394 111.781C190.05 112.572 189.27 113.083 188.407 113.083H184.5C184.224 113.083 184 112.859 184 112.583C184 112.307 184.224 112.083 184.5 112.083H188.407C188.872 112.083 189.292 111.808 189.477 111.382L192.772 103.803C193.116 103.012 193.897 102.5 194.759 102.5H198.293L196.646 100.854C196.451 100.658 196.451 100.342 196.646 100.146ZM184.5 101.667L188.407 101.667C189.27 101.667 190.05 102.178 190.394 102.969L191 104.363C191.11 104.616 190.994 104.911 190.741 105.021C190.488 105.131 190.193 105.015 190.083 104.762L189.477 103.368C189.292 102.942 188.872 102.667 188.407 102.667L184.5 102.667C184.224 102.667 184 102.443 184 102.167C184 101.891 184.224 101.667 184.5 101.667ZM196.646 108.896C196.842 108.701 197.158 108.701 197.354 108.896L199.854 111.396C200.049 111.592 200.049 111.908 199.854 112.104L197.354 114.604C197.158 114.799 196.842 114.799 196.646 114.604C196.451 114.408 196.451 114.092 196.646 113.896L198.293 112.25H194.759C193.897 112.25 193.116 111.738 192.772 110.947L192.375 110.033C192.265 109.779 192.381 109.485 192.634 109.375C192.887 109.265 193.182 109.381 193.292 109.634L193.689 110.549C193.875 110.974 194.295 111.25 194.759 111.25H198.293L196.646 109.604C196.451 109.408 196.451 109.092 196.646 108.896Z" fill="white"/>
</svg>
