<svg width="200" height="130" viewBox="0 0 200 130" fill="none" xmlns="http://www.w3.org/2000/svg">
<path d="M196.286 108.429L198 106.714M198 106.714L196.286 105M198 106.714H196.029C194.585 106.713 193.237 107.438 192.444 108.645L191.458 110.143M191.458 110.143L190.473 111.641C189.68 112.846 188.334 113.571 186.892 113.571H186M191.458 110.143L192.444 111.641C193.237 112.847 194.585 113.573 196.029 113.571H198M191.458 110.143L190.473 108.645C189.68 107.44 188.334 106.714 186.892 106.714H186M198 113.571L196.286 111.857M198 113.571L196.286 115.286" stroke="#CFCFCF" stroke-linecap="round" stroke-linejoin="round"/>
</svg>
